<svg version="1.1" id="Layer_1" xmlns="http://www.w3.org/2000/svg" xmlns:xlink="http://www.w3.org/1999/xlink" x="0px" y="0px"
	 width="100%" viewBox="0 0 2000 1999" enable-background="new 0 0 2000 1999" xml:space="preserve">
<path fill="#35185A" opacity="1.000000" stroke="none" 
	d="
M945.000000,1.000002 
	C982.020935,1.000000 1019.041809,1.000000 1056.581299,1.408806 
	C1057.948608,2.203882 1058.775635,2.865708 1059.649658,2.935134 
	C1073.018433,3.997001 1086.420410,4.711261 1099.760132,6.050963 
	C1117.363647,7.818871 1135.075928,9.187044 1152.460815,12.295712 
	C1183.223145,17.796429 1213.928833,23.810295 1244.373535,30.841532 
	C1281.068237,39.316219 1316.968384,50.764797 1352.114380,64.290207 
	C1375.473511,73.279579 1398.625732,82.920036 1421.370728,93.358315 
	C1441.729248,102.701462 1461.659546,113.068329 1481.307617,123.842987 
	C1500.921143,134.598801 1520.441406,145.674713 1539.110474,157.965149 
	C1562.624512,173.445175 1585.840820,189.517258 1608.071167,206.769836 
	C1632.913940,226.049759 1656.926514,246.464981 1680.493286,267.299011 
	C1695.405762,280.482178 1709.235840,294.966858 1722.841431,309.530884 
	C1739.709595,327.587006 1756.624390,345.700439 1772.099243,364.931519 
	C1791.911133,389.552460 1810.911987,414.885132 1829.155396,440.693604 
	C1850.135010,470.373291 1868.478760,501.787598 1885.382080,533.963989 
	C1901.988892,565.576294 1917.598511,597.729858 1930.026489,631.234741 
	C1940.747925,660.138855 1951.054932,689.245605 1960.107544,718.704468 
	C1967.490845,742.730957 1973.881836,767.190613 1978.667358,791.855103 
	C1984.865601,823.798767 1989.577515,856.063904 1993.875610,888.331055 
	C1996.581787,908.647095 1997.324341,929.223083 1999.071411,949.671875 
	C1999.198486,951.158630 2000.333618,952.559326 2001.000000,954.000000 
	C2001.000000,984.687561 2001.000000,1015.375183 2000.590942,1046.581299 
	C1999.787964,1048.782104 1999.145264,1050.448730 1999.040039,1052.148682 
	C1998.282715,1064.393433 1998.084595,1076.690552 1996.846680,1088.883423 
	C1994.943970,1107.623657 1993.007568,1126.403687 1989.899292,1144.968262 
	C1984.985962,1174.314331 1980.063110,1203.720093 1973.390015,1232.696533 
	C1962.479736,1280.071167 1947.694336,1326.307251 1929.437256,1371.444092 
	C1915.537964,1405.807129 1900.559448,1439.656006 1882.357666,1471.925659 
	C1866.723999,1499.642578 1850.544189,1527.101074 1833.408325,1553.908325 
	C1813.505859,1585.043701 1791.279907,1614.598511 1766.961548,1642.469727 
	C1749.837402,1662.095459 1732.571167,1681.625610 1714.655029,1700.521973 
	C1702.323975,1713.527710 1688.914795,1725.530762 1675.722168,1737.694214 
	C1663.897705,1748.596558 1652.187500,1759.710083 1639.579956,1769.656982 
	C1616.188843,1788.112183 1592.641724,1806.437622 1568.320923,1823.630737 
	C1531.289185,1849.809326 1492.221191,1872.804688 1451.612671,1892.997192 
	C1429.627197,1903.929443 1407.130371,1913.879028 1384.593506,1923.646729 
	C1344.508423,1941.020264 1303.121948,1954.746216 1260.920898,1965.960815 
	C1213.847412,1978.470459 1166.215332,1988.187012 1117.691040,1993.033325 
	C1098.759644,1994.924194 1079.779785,1996.326538 1060.833252,1998.073364 
	C1059.507446,1998.195435 1058.275513,1999.333984 1057.000000,2000.000000 
	C1019.979126,2000.000000 982.958191,2000.000000 945.416077,1999.591797 
	C944.046265,1998.797119 943.219604,1998.134766 942.345886,1998.065430 
	C928.975830,1997.003174 915.572571,1996.288208 902.231445,1994.949463 
	C884.627625,1993.182983 866.939270,1991.712769 849.525452,1988.726196 
	C822.477539,1984.087646 795.497742,1978.866333 768.728333,1972.830688 
	C725.325989,1963.045166 682.895569,1949.791748 641.473511,1933.573120 
	C606.697876,1919.957031 572.225098,1905.496948 539.593445,1887.178467 
	C512.556702,1872.000977 485.424042,1856.909302 459.161194,1840.458740 
	C423.612885,1818.192139 389.853546,1793.295044 358.208313,1765.690918 
	C338.833923,1748.790771 319.526703,1731.780884 300.873627,1714.098389 
	C287.987061,1701.882446 276.068604,1688.616577 264.086029,1675.483643 
	C251.462555,1661.648315 238.808090,1647.794678 227.000885,1633.271240 
	C204.527191,1605.627319 182.961502,1577.252686 164.076172,1546.990967 
	C150.297897,1524.912598 136.501602,1502.807617 123.801071,1480.105957 
	C113.105865,1460.988525 103.594826,1441.174561 94.269226,1421.335205 
	C85.734070,1403.177368 77.315186,1384.882446 70.343201,1366.092041 
	C60.140049,1338.593140 50.431164,1310.848389 42.084381,1282.741455 
	C34.316883,1256.585083 27.551785,1230.025879 22.272440,1203.263794 
	C16.359970,1173.292358 12.065969,1142.964966 8.115671,1112.655884 
	C5.466551,1092.330200 4.675107,1071.763794 2.928871,1051.315796 
	C2.802253,1049.833130 1.666537,1048.436523 0.999995,1047.000000 
	C1.000000,1016.312439 1.000000,985.624878 1.408912,954.417480 
	C2.210670,952.715698 2.867888,951.552246 2.951874,950.348816 
	C3.378838,944.230835 3.531283,938.092651 4.012131,931.979736 
	C5.297266,915.642090 6.144209,899.243591 8.193061,882.998901 
	C11.005614,860.698975 14.169255,838.408569 18.248281,816.310791 
	C25.648312,776.221619 35.618721,736.723267 47.944592,697.847473 
	C61.502209,655.086792 77.609436,613.269104 97.229866,572.954712 
	C110.665497,545.348267 125.071983,518.139465 140.482193,491.587372 
	C161.296951,455.723175 184.351166,421.221954 210.529312,388.980957 
	C229.000458,366.231903 247.653870,343.595062 267.113953,321.697296 
	C280.115753,307.066833 294.312408,293.432007 308.630737,280.054199 
	C327.289551,262.621002 346.075958,245.249451 365.771667,229.021652 
	C386.204010,212.186935 407.471893,196.312485 428.941132,180.802582 
	C461.916199,156.980530 496.789459,136.122238 532.766907,117.157730 
	C547.600769,109.338516 562.628052,101.858215 577.797119,94.711319 
	C592.349731,87.854843 606.944641,80.954674 621.974426,75.273376 
	C649.566650,64.843430 677.333069,54.814026 705.334351,45.546822 
	C724.343323,39.255661 743.721619,33.894539 763.209106,29.274797 
	C800.558044,20.420843 838.164490,12.707041 876.441040,8.934743 
	C898.005737,6.809471 919.601074,4.996540 941.171631,2.928248 
	C942.497192,2.801145 943.726135,1.666089 945.000000,1.000002 
M1390.550537,1396.985229 
	C1390.634399,1396.657593 1390.718262,1396.330078 1390.936157,1395.073364 
	C1390.936157,1163.858154 1390.936157,932.642944 1390.936157,700.949463 
	C1468.429565,700.949463 1545.148071,700.949463 1621.806885,700.949463 
	C1621.806885,668.384277 1621.806885,636.298950 1621.806885,604.128540 
	C1431.813354,604.128540 1242.095947,604.128540 1052.342896,604.128540 
	C1052.342896,636.601685 1052.342896,668.821045 1052.342896,701.476562 
	C1129.424438,701.476562 1206.164185,701.476562 1283.280029,701.476562 
	C1283.280029,933.495117 1283.280029,1165.075684 1283.280029,1397.123901 
	C1286.443359,1397.123901 1289.234375,1397.128906 1292.025513,1397.123169 
	C1324.682495,1397.056030 1357.339600,1396.987183 1390.550537,1396.985229 
M767.507141,1172.500366 
	C767.507141,1134.667847 767.438354,1096.834961 767.628845,1059.003418 
	C767.645325,1055.738770 768.705261,1052.070312 770.414307,1049.285278 
	C791.797180,1014.441956 813.390381,979.727661 834.927734,944.979187 
	C868.548950,890.734619 902.171692,836.491089 935.788147,782.243591 
	C967.402466,731.226990 999.011902,680.207336 1030.616821,629.184814 
	C1035.725342,620.937683 1040.800049,612.669678 1046.003784,604.227478 
	C1045.051636,604.031372 1044.731934,603.908020 1044.412354,603.907898 
	C1005.246704,603.891113 966.080750,603.837585 926.916077,604.026123 
	C925.171326,604.034546 922.815918,605.861084 921.794006,607.496338 
	C911.227417,624.406067 900.892700,641.460510 890.463257,658.456055 
	C856.715698,713.449890 822.899658,768.401855 789.218689,823.436401 
	C764.921448,863.138062 740.801636,902.948242 716.582336,942.697632 
	C715.477539,944.510803 714.171204,946.201172 712.849365,948.106384 
	C711.434509,945.755493 710.284058,943.816406 709.107605,941.893311 
	C694.533569,918.070129 679.977600,894.235901 665.374512,870.430542 
	C631.649780,815.454041 597.854248,760.521057 564.181519,705.512817 
	C544.223022,672.908386 524.403931,640.218262 504.653961,607.487122 
	C502.957794,604.676147 501.141174,603.789429 497.934265,603.799438 
	C460.268799,603.917175 422.602875,603.871521 384.937042,603.888733 
	C383.558075,603.889343 382.179169,604.092163 380.172821,604.250122 
	C385.080414,612.154480 389.604645,619.454407 394.141479,626.746582 
	C430.080627,684.512451 466.022217,742.276733 501.963013,800.041565 
	C529.962524,845.042969 557.964355,890.042969 585.960571,935.046387 
	C609.664917,973.150696 633.411133,1011.229248 656.963318,1049.427368 
	C658.671509,1052.197754 659.768555,1055.849243 659.772766,1059.092773 
	C659.915405,1169.756836 659.891418,1280.421021 659.891418,1391.085205 
	C659.891418,1393.014771 659.891418,1394.944336 659.891418,1396.797852 
	C696.104614,1396.797852 731.678650,1396.797852 767.507080,1396.797852 
	C767.507080,1322.147461 767.507080,1247.823975 767.507141,1172.500366 
z"/>
<path fill="#000000" opacity="1.000000" stroke="none" 
	d="
M0.999995,1047.468628 
	C1.666537,1048.436523 2.802253,1049.833130 2.928871,1051.315796 
	C4.675107,1071.763794 5.466551,1092.330200 8.115671,1112.655884 
	C12.065969,1142.964966 16.359970,1173.292358 22.272440,1203.263794 
	C27.551785,1230.025879 34.316883,1256.585083 42.084381,1282.741455 
	C50.431164,1310.848389 60.140049,1338.593140 70.343201,1366.092041 
	C77.315186,1384.882446 85.734070,1403.177368 94.269226,1421.335205 
	C103.594826,1441.174561 113.105865,1460.988525 123.801071,1480.105957 
	C136.501602,1502.807617 150.297897,1524.912598 164.076172,1546.990967 
	C182.961502,1577.252686 204.527191,1605.627319 227.000885,1633.271240 
	C238.808090,1647.794678 251.462555,1661.648315 264.086029,1675.483643 
	C276.068604,1688.616577 287.987061,1701.882446 300.873627,1714.098389 
	C319.526703,1731.780884 338.833923,1748.790771 358.208313,1765.690918 
	C389.853546,1793.295044 423.612885,1818.192139 459.161194,1840.458740 
	C485.424042,1856.909302 512.556702,1872.000977 539.593445,1887.178467 
	C572.225098,1905.496948 606.697876,1919.957031 641.473511,1933.573120 
	C682.895569,1949.791748 725.325989,1963.045166 768.728333,1972.830688 
	C795.497742,1978.866333 822.477539,1984.087646 849.525452,1988.726196 
	C866.939270,1991.712769 884.627625,1993.182983 902.231445,1994.949463 
	C915.572571,1996.288208 928.975830,1997.003174 942.345886,1998.065430 
	C943.219604,1998.134766 944.046265,1998.797119 944.947388,1999.591797 
	C630.405884,2000.000000 315.811768,2000.000000 1.000000,2000.000000 
	C1.000000,1682.645752 1.000000,1365.291504 0.999995,1047.468628 
z"/>
<path fill="#000000" opacity="1.000000" stroke="none" 
	d="
M1057.468628,2000.000000 
	C1058.275513,1999.333984 1059.507446,1998.195435 1060.833252,1998.073364 
	C1079.779785,1996.326538 1098.759644,1994.924194 1117.691040,1993.033325 
	C1166.215332,1988.187012 1213.847412,1978.470459 1260.920898,1965.960815 
	C1303.121948,1954.746216 1344.508423,1941.020264 1384.593506,1923.646729 
	C1407.130371,1913.879028 1429.627197,1903.929443 1451.612671,1892.997192 
	C1492.221191,1872.804688 1531.289185,1849.809326 1568.320923,1823.630737 
	C1592.641724,1806.437622 1616.188843,1788.112183 1639.579956,1769.656982 
	C1652.187500,1759.710083 1663.897705,1748.596558 1675.722168,1737.694214 
	C1688.914795,1725.530762 1702.323975,1713.527710 1714.655029,1700.521973 
	C1732.571167,1681.625610 1749.837402,1662.095459 1766.961548,1642.469727 
	C1791.279907,1614.598511 1813.505859,1585.043701 1833.408325,1553.908325 
	C1850.544189,1527.101074 1866.723999,1499.642578 1882.357666,1471.925659 
	C1900.559448,1439.656006 1915.537964,1405.807129 1929.437256,1371.444092 
	C1947.694336,1326.307251 1962.479736,1280.071167 1973.390015,1232.696533 
	C1980.063110,1203.720093 1984.985962,1174.314331 1989.899292,1144.968262 
	C1993.007568,1126.403687 1994.943970,1107.623657 1996.846680,1088.883423 
	C1998.084595,1076.690552 1998.282715,1064.393433 1999.040039,1052.148682 
	C1999.145264,1050.448730 1999.787964,1048.782104 2000.590942,1047.050049 
	C2001.000000,1364.593384 2001.000000,1682.186890 2001.000000,2000.000000 
	C1686.645752,2000.000000 1372.291504,2000.000000 1057.468628,2000.000000 
z"/>
<path fill="#000000" opacity="1.000000" stroke="none" 
	d="
M944.531372,1.000002 
	C943.726135,1.666089 942.497192,2.801145 941.171631,2.928248 
	C919.601074,4.996540 898.005737,6.809471 876.441040,8.934743 
	C838.164490,12.707041 800.558044,20.420843 763.209106,29.274797 
	C743.721619,33.894539 724.343323,39.255661 705.334351,45.546822 
	C677.333069,54.814026 649.566650,64.843430 621.974426,75.273376 
	C606.944641,80.954674 592.349731,87.854843 577.797119,94.711319 
	C562.628052,101.858215 547.600769,109.338516 532.766907,117.157730 
	C496.789459,136.122238 461.916199,156.980530 428.941132,180.802582 
	C407.471893,196.312485 386.204010,212.186935 365.771667,229.021652 
	C346.075958,245.249451 327.289551,262.621002 308.630737,280.054199 
	C294.312408,293.432007 280.115753,307.066833 267.113953,321.697296 
	C247.653870,343.595062 229.000458,366.231903 210.529312,388.980957 
	C184.351166,421.221954 161.296951,455.723175 140.482193,491.587372 
	C125.071983,518.139465 110.665497,545.348267 97.229866,572.954712 
	C77.609436,613.269104 61.502209,655.086792 47.944592,697.847473 
	C35.618721,736.723267 25.648312,776.221619 18.248281,816.310791 
	C14.169255,838.408569 11.005614,860.698975 8.193061,882.998901 
	C6.144209,899.243591 5.297266,915.642090 4.012131,931.979736 
	C3.531283,938.092651 3.378838,944.230835 2.951874,950.348816 
	C2.867888,951.552246 2.210670,952.715698 1.408912,953.948792 
	C1.000000,636.406555 1.000000,318.813141 1.000000,1.000000 
	C315.354187,1.000000 629.708435,1.000000 944.531372,1.000002 
z"/>
<path fill="#000000" opacity="1.000000" stroke="none" 
	d="
M2001.000000,953.531372 
	C2000.333618,952.559326 1999.198486,951.158630 1999.071411,949.671875 
	C1997.324341,929.223083 1996.581787,908.647095 1993.875610,888.331055 
	C1989.577515,856.063904 1984.865601,823.798767 1978.667358,791.855103 
	C1973.881836,767.190613 1967.490845,742.730957 1960.107544,718.704468 
	C1951.054932,689.245605 1940.747925,660.138855 1930.026489,631.234741 
	C1917.598511,597.729858 1901.988892,565.576294 1885.382080,533.963989 
	C1868.478760,501.787598 1850.135010,470.373291 1829.155396,440.693604 
	C1810.911987,414.885132 1791.911133,389.552460 1772.099243,364.931519 
	C1756.624390,345.700439 1739.709595,327.587006 1722.841431,309.530884 
	C1709.235840,294.966858 1695.405762,280.482178 1680.493286,267.299011 
	C1656.926514,246.464981 1632.913940,226.049759 1608.071167,206.769836 
	C1585.840820,189.517258 1562.624512,173.445175 1539.110474,157.965149 
	C1520.441406,145.674713 1500.921143,134.598801 1481.307617,123.842987 
	C1461.659546,113.068329 1441.729248,102.701462 1421.370728,93.358315 
	C1398.625732,82.920036 1375.473511,73.279579 1352.114380,64.290207 
	C1316.968384,50.764797 1281.068237,39.316219 1244.373535,30.841532 
	C1213.928833,23.810295 1183.223145,17.796429 1152.460815,12.295712 
	C1135.075928,9.187044 1117.363647,7.818871 1099.760132,6.050963 
	C1086.420410,4.711261 1073.018433,3.997001 1059.649658,2.935134 
	C1058.775635,2.865708 1057.948608,2.203882 1057.049805,1.408806 
	C1371.594116,1.000000 1686.188232,1.000000 2001.000000,1.000000 
	C2001.000000,318.354187 2001.000000,635.708435 2001.000000,953.531372 
z"/>
<path fill="#FFFFFF" opacity="1.000000" stroke="none" 
	d="
M767.507080,1173.000488 
	C767.507080,1247.823975 767.507080,1322.147461 767.507080,1396.797852 
	C731.678650,1396.797852 696.104614,1396.797852 659.891418,1396.797852 
	C659.891418,1394.944336 659.891418,1393.014771 659.891418,1391.085205 
	C659.891418,1280.421021 659.915405,1169.756836 659.772766,1059.092773 
	C659.768555,1055.849243 658.671509,1052.197754 656.963318,1049.427368 
	C633.411133,1011.229248 609.664917,973.150696 585.960571,935.046387 
	C557.964355,890.042969 529.962524,845.042969 501.963013,800.041565 
	C466.022217,742.276733 430.080627,684.512451 394.141479,626.746582 
	C389.604645,619.454407 385.080414,612.154480 380.172821,604.250122 
	C382.179169,604.092163 383.558075,603.889343 384.937042,603.888733 
	C422.602875,603.871521 460.268799,603.917175 497.934265,603.799438 
	C501.141174,603.789429 502.957794,604.676147 504.653961,607.487122 
	C524.403931,640.218262 544.223022,672.908386 564.181519,705.512817 
	C597.854248,760.521057 631.649780,815.454041 665.374512,870.430542 
	C679.977600,894.235901 694.533569,918.070129 709.107605,941.893311 
	C710.284058,943.816406 711.434509,945.755493 712.849365,948.106384 
	C714.171204,946.201172 715.477539,944.510803 716.582336,942.697632 
	C740.801636,902.948242 764.921448,863.138062 789.218689,823.436401 
	C822.899658,768.401855 856.715698,713.449890 890.463257,658.456055 
	C900.892700,641.460510 911.227417,624.406067 921.794006,607.496338 
	C922.815918,605.861084 925.171326,604.034546 926.916077,604.026123 
	C966.080750,603.837585 1005.246704,603.891113 1044.412354,603.907898 
	C1044.731934,603.908020 1045.051636,604.031372 1046.003784,604.227478 
	C1040.800049,612.669678 1035.725342,620.937683 1030.616821,629.184814 
	C999.011902,680.207336 967.402466,731.226990 935.788147,782.243591 
	C902.171692,836.491089 868.548950,890.734619 834.927734,944.979187 
	C813.390381,979.727661 791.797180,1014.441956 770.414307,1049.285278 
	C768.705261,1052.070312 767.645325,1055.738770 767.628845,1059.003418 
	C767.438354,1096.834961 767.507141,1134.667847 767.507080,1173.000488 
z"/>
<path fill="#FFFFFF" opacity="1.000000" stroke="none" 
	d="
M1389.996582,1396.918823 
	C1357.339600,1396.987183 1324.682495,1397.056030 1292.025513,1397.123169 
	C1289.234375,1397.128906 1286.443359,1397.123901 1283.280029,1397.123901 
	C1283.280029,1165.075684 1283.280029,933.495117 1283.280029,701.476562 
	C1206.164185,701.476562 1129.424438,701.476562 1052.342896,701.476562 
	C1052.342896,668.821045 1052.342896,636.601685 1052.342896,604.128540 
	C1242.095947,604.128540 1431.813354,604.128540 1621.806885,604.128540 
	C1621.806885,636.298950 1621.806885,668.384277 1621.806885,700.949463 
	C1545.148071,700.949463 1468.429565,700.949463 1390.936157,700.949463 
	C1390.936157,932.642944 1390.936157,1163.858154 1390.703125,1395.660645 
	C1390.263062,1396.436890 1390.105225,1396.660522 1389.996582,1396.918823 
z"/>
<path fill="#EEEBF1" opacity="1.000000" stroke="none" 
	d="
M1390.273560,1396.952026 
	C1390.105225,1396.660522 1390.263062,1396.436890 1390.636230,1396.125244 
	C1390.718262,1396.330078 1390.634399,1396.657593 1390.273560,1396.952026 
z"/>
</svg>