<svg version="1.1" id="Layer_1" xmlns="http://www.w3.org/2000/svg" xmlns:xlink="http://www.w3.org/1999/xlink" x="0px" y="0px"
	 width="100%" viewBox="0 0 192 211" enable-background="new 0 0 192 211" xml:space="preserve">
<path fill="#000000" opacity="1.000000" stroke="none" 
	d="
M17.000000,212.000000 
	C11.670249,212.000000 6.340498,212.000000 1.008061,212.000000 
	C1.005374,141.717499 1.005374,71.434990 1.005374,1.076243 
	C64.906097,1.076243 128.812317,1.076243 192.859268,1.076243 
	C192.859268,71.333130 192.859268,141.666519 192.859268,212.000000 
	C185.928207,212.000000 178.932892,212.000000 171.468781,211.531433 
	C171.000000,207.402786 170.973312,203.742477 171.004837,200.082672 
	C171.111542,187.694275 171.110107,190.484665 161.230804,189.920914 
	C161.157822,189.316177 161.032028,188.679779 161.011307,188.039963 
	C160.785263,181.056946 160.762741,181.196213 153.753159,179.838898 
	C152.646698,179.624664 151.074234,177.446609 151.149597,176.268143 
	C151.450424,171.563538 149.879303,169.286942 144.936707,169.990173 
	C141.858398,170.428162 140.858658,168.952332 140.953613,165.964691 
	C141.122635,160.646393 140.996490,155.318710 140.995407,149.541306 
	C140.989273,146.055206 140.981506,143.022766 140.980957,139.542267 
	C141.001663,136.407654 141.015167,133.721100 141.483124,131.021820 
	C150.990372,130.980667 150.990295,130.980667 150.997574,121.993225 
	C150.997849,121.667702 151.002426,121.342171 151.462494,121.008728 
	C153.073120,121.000641 154.250504,120.848129 155.375198,121.026939 
	C159.995438,121.761497 161.409393,119.798965 161.085373,115.293892 
	C160.696304,109.884102 160.939957,104.428818 160.941559,98.540207 
	C160.948776,95.055099 160.924103,92.023026 160.934601,88.534958 
	C160.969788,85.189186 160.969788,82.299400 160.969788,79.093224 
	C156.755234,79.093224 153.325516,79.093224 149.443024,78.981003 
	C147.179611,78.770988 145.369095,78.591034 143.558258,78.587677 
	C115.375687,78.535362 87.193092,78.505913 58.850704,78.296631 
	C58.166771,78.443085 57.642632,78.764084 56.643124,79.061089 
	C53.029480,79.024185 49.891216,79.002243 46.752934,79.000038 
	C36.861996,78.993080 36.861992,78.995941 37.042004,89.499214 
	C37.046577,96.634789 37.071323,103.304314 37.063087,110.436104 
	C37.018379,112.708328 37.178398,114.539398 36.959126,116.323860 
	C36.504826,120.020973 37.975155,121.608986 41.658257,120.987091 
	C46.129257,120.232162 47.661644,122.222252 47.030781,126.477112 
	C46.863949,127.602325 47.028294,128.776642 47.028603,130.387817 
	C46.981461,137.884583 46.948788,137.723495 39.735203,139.186569 
	C38.594730,139.417877 37.106083,141.878647 37.151287,143.263809 
	C37.282570,147.286560 36.563248,149.755386 31.764786,149.033600 
	C27.986284,148.465210 26.802961,150.521851 26.958235,154.057022 
	C27.140511,158.206924 27.197536,162.382996 26.944788,166.525497 
	C26.695955,170.603821 28.151859,172.483475 32.354916,172.017410 
	C35.109428,171.711990 37.069149,172.062576 37.113262,175.814926 
	C37.158821,179.690689 35.311142,180.415115 32.218113,179.980927 
	C28.037977,179.394150 26.359051,181.126862 26.998077,185.249451 
	C27.571501,188.948807 26.040993,190.533600 22.285746,190.009384 
	C18.025038,189.414612 16.764227,191.533295 16.940434,195.537292 
	C17.181499,201.015121 17.000238,206.511551 17.000000,212.000000 
M18.034304,59.511429 
	C18.034304,59.511429 18.137938,59.965519 17.981390,60.863728 
	C17.981390,63.092110 17.981390,65.320496 17.981390,67.880470 
	C21.276770,67.880470 24.155487,67.880470 27.930428,68.161484 
	C75.634048,68.181503 123.337669,68.205116 171.041290,68.211929 
	C173.694168,68.212303 176.347092,68.073593 179.630325,68.094727 
	C179.727814,67.729073 179.825317,67.363419 180.008514,66.084450 
	C180.008514,63.479336 180.008514,60.874226 180.008514,57.711422 
	C169.636810,57.711422 159.846497,57.711422 150.098114,57.315647 
	C150.098114,57.315647 149.926559,56.956532 149.947083,56.487640 
	C149.947083,56.487640 149.844391,56.029678 149.964050,55.095867 
	C149.914322,49.271744 149.864594,43.447624 149.869507,36.784676 
	C149.834473,34.194515 149.799423,31.604353 149.886810,28.496429 
	C149.587372,28.387087 149.287918,28.277744 148.121185,28.017159 
	C139.125473,27.942951 139.126266,27.942940 138.990448,19.003469 
	C138.985413,18.671606 138.934509,18.340437 139.029739,17.407112 
	C138.684479,17.298864 138.339203,17.190615 137.067719,16.933006 
	C114.059746,17.009916 91.051765,17.086826 67.144402,17.024755 
	C56.557060,16.977875 58.133213,16.112276 58.000275,26.033043 
	C57.995918,26.357958 58.008003,26.683092 57.999542,27.000376 
	C57.999542,27.000376 58.009277,27.013552 57.111649,27.173548 
	C54.248913,27.173548 51.386177,27.173548 48.267971,27.173548 
	C48.267971,30.936277 48.267971,33.999138 48.052380,37.968639 
	C48.013248,44.262470 47.974113,50.556297 47.464230,57.053955 
	C47.299732,57.341434 47.135235,57.628914 46.040108,57.988785 
	C39.721855,58.116013 33.403606,58.243240 26.213547,58.157574 
	C23.828999,58.161400 21.444452,58.165226 18.488533,58.072979 
	C18.360697,58.399006 18.232862,58.725037 18.034304,59.511429 
z"/>
<path fill="#080808" opacity="1.000000" stroke="none" 
	d="
M140.993790,149.994965 
	C140.996490,155.318710 141.122635,160.646393 140.953613,165.964691 
	C140.858658,168.952332 141.858398,170.428162 144.936707,169.990173 
	C149.879303,169.286942 151.450424,171.563538 151.149597,176.268143 
	C151.074234,177.446609 152.646698,179.624664 153.753159,179.838898 
	C160.762741,181.196213 160.785263,181.056946 161.011307,188.039963 
	C161.032028,188.679779 161.157822,189.316177 161.230804,189.920914 
	C171.110107,190.484665 171.111542,187.694275 171.004837,200.082672 
	C170.973312,203.742477 171.000000,207.402786 171.000000,211.531433 
	C167.638718,212.000000 164.277420,212.000000 160.458237,211.531494 
	C160.000336,204.842514 160.000336,198.622040 160.000336,192.214371 
	C157.906494,192.115997 156.450165,192.059937 154.995453,191.975952 
	C153.354446,191.881256 151.714890,191.761459 150.057831,191.218781 
	C150.028152,189.123749 149.844833,187.442490 150.037247,185.805405 
	C150.465759,182.159622 149.145905,180.375885 145.343887,181.015579 
	C140.739487,181.790283 139.356735,179.588165 139.991821,175.395966 
	C140.534332,171.814835 138.794128,170.484070 135.439087,171.012466 
	C130.977081,171.715179 129.303757,169.830902 129.982574,165.482544 
	C130.523849,162.015198 129.020966,160.726486 125.511375,160.941193 
	C121.373428,161.194321 117.202774,161.130295 113.056557,160.957611 
	C110.097038,160.834351 108.885498,161.808334 108.957222,164.920197 
	C109.160027,173.719757 109.120766,182.524887 109.124557,191.772980 
	C109.048172,198.812088 109.024086,205.406036 109.000000,212.000000 
	C105.969406,212.000000 102.938812,212.000000 99.449844,211.531555 
	C98.926422,204.499908 98.861374,197.936691 98.860458,190.875748 
	C98.950119,182.059845 98.828781,173.737411 99.069901,165.425491 
	C99.173492,161.854172 97.863708,160.851715 94.453316,160.929214 
	C85.972534,161.121948 77.484505,160.996475 68.541321,160.996918 
	C64.719414,160.997620 61.355583,161.000183 57.996555,160.555573 
	C58.343723,156.741592 58.686085,153.374756 59.270584,150.010269 
	C59.512722,150.012604 59.997005,150.010284 60.441547,150.010956 
	C63.258793,150.006943 65.631493,150.002243 68.379196,150.163177 
	C72.166939,150.547623 75.579666,150.766434 79.412872,150.990479 
	C82.749924,150.685287 85.666504,150.374847 88.933289,150.145950 
	C89.518242,150.178970 89.752991,150.130463 90.440926,150.214996 
	C103.803993,150.182846 116.713875,150.017670 130.104340,149.895309 
	C134.054535,149.957062 137.524170,149.976013 140.993790,149.994965 
z"/>
<path fill="#5D458B" opacity="1.000000" stroke="none" 
	d="
M98.796326,191.373474 
	C98.861374,197.936691 98.926422,204.499908 98.995728,211.531555 
	C88.979103,212.000000 78.958214,212.000000 68.461502,211.541763 
	C67.985680,208.191299 67.985680,205.299088 67.985680,202.364838 
	C64.658615,202.364838 61.986172,202.364838 59.000000,202.364838 
	C59.000000,205.820923 59.000000,208.910461 59.000000,212.000000 
	C52.312355,212.000000 45.624710,212.000000 38.466263,211.531525 
	C37.971783,204.655914 37.948101,198.248779 38.386276,191.815826 
	C41.895428,191.623398 44.942719,191.456818 48.380676,191.435242 
	C65.446342,191.511322 82.121330,191.442398 98.796326,191.373474 
z"/>
<path fill="#5D458B" opacity="1.000000" stroke="none" 
	d="
M150.074692,191.652588 
	C151.714890,191.761459 153.354446,191.881256 154.995453,191.975952 
	C156.450165,192.059937 157.906494,192.115997 160.000336,192.214371 
	C160.000336,198.622040 160.000336,204.842514 160.000168,211.531494 
	C143.312439,212.000000 126.624878,212.000000 109.468658,212.000000 
	C109.024086,205.406036 109.048172,198.812088 109.575760,191.722610 
	C123.411064,191.368927 136.742874,191.510757 150.074692,191.652588 
z"/>
<path fill="#090908" opacity="1.000000" stroke="none" 
	d="
M17.454109,212.000000 
	C17.000238,206.511551 17.181499,201.015121 16.940434,195.537292 
	C16.764227,191.533295 18.025038,189.414612 22.285746,190.009384 
	C26.040993,190.533600 27.571501,188.948807 26.998077,185.249451 
	C26.359051,181.126862 28.037977,179.394150 32.218113,179.980927 
	C35.311142,180.415115 37.158821,179.690689 37.113262,175.814926 
	C37.069149,172.062576 35.109428,171.711990 32.354916,172.017410 
	C28.151859,172.483475 26.695955,170.603821 26.944788,166.525497 
	C27.197536,162.382996 27.140511,158.206924 26.958235,154.057022 
	C26.802961,150.521851 27.986284,148.465210 31.764786,149.033600 
	C36.563248,149.755386 37.282570,147.286560 37.151287,143.263809 
	C37.106083,141.878647 38.594730,139.417877 39.735203,139.186569 
	C46.948788,137.723495 46.981461,137.884583 47.482361,130.407043 
	C51.304920,129.973633 54.661755,129.980423 58.024307,130.442474 
	C58.040054,133.927414 58.050076,136.957077 57.598923,139.990860 
	C47.996067,140.012009 47.996052,140.012009 48.001320,149.021027 
	C48.001511,149.348145 48.002632,149.675247 48.001659,150.001190 
	C48.000000,150.000000 48.002983,150.005081 47.594734,150.057968 
	C44.320389,150.646820 40.201435,150.241928 38.910583,151.960846 
	C37.354897,154.032425 38.200752,157.907471 38.002956,161.459076 
	C37.984871,171.001373 37.984871,171.001404 47.023052,170.997086 
	C47.349293,170.996933 47.675533,170.995178 48.001404,171.448654 
	C48.001064,174.935623 48.001099,177.968124 48.000565,181.000305 
	C48.000000,181.000000 48.000809,181.001221 47.543327,181.001053 
	C38.964336,181.003128 38.981182,181.005264 37.928192,189.324463 
	C37.828278,190.113876 37.345909,190.854889 36.597118,191.746704 
	C33.242699,191.875031 30.332256,191.875031 27.000000,191.875031 
	C27.000000,199.158981 27.000000,205.579483 27.000000,212.000000 
	C23.969406,212.000000 20.938814,212.000000 17.454109,212.000000 
z"/>
<path fill="#493770" opacity="1.000000" stroke="none" 
	d="
M27.458069,212.000000 
	C27.000000,205.579483 27.000000,199.158981 27.000000,191.875031 
	C30.332256,191.875031 33.242699,191.875031 36.816071,191.810516 
	C37.479004,191.746002 37.924419,191.841660 37.924419,191.841660 
	C37.948101,198.248779 37.971783,204.655914 37.997734,211.531525 
	C34.638714,212.000000 31.277426,212.000000 27.458069,212.000000 
z"/>
<path fill="#080808" opacity="1.000000" stroke="none" 
	d="
M59.449982,212.000000 
	C59.000000,208.910461 59.000000,205.820923 59.000000,202.364838 
	C61.986172,202.364838 64.658615,202.364838 67.985680,202.364838 
	C67.985680,205.299088 67.985680,208.191299 67.992844,211.541763 
	C65.299988,212.000000 62.599972,212.000000 59.449982,212.000000 
z"/>
<path fill="#FEFFFE" opacity="1.000000" stroke="none" 
	d="
M129.623749,149.852509 
	C116.713875,150.017670 103.803993,150.182846 90.374924,149.974091 
	C89.679085,149.297180 89.423126,149.094147 89.000725,148.547699 
	C88.812088,145.404099 88.710594,142.703888 88.734604,139.550339 
	C88.872223,135.165527 88.946365,131.233047 88.883667,127.302773 
	C88.749069,118.865959 90.511108,119.617973 80.650284,119.425598 
	C73.567230,119.156761 66.793282,119.159187 59.688538,118.878677 
	C59.241989,105.220886 59.126247,91.846024 59.010502,78.471169 
	C87.193092,78.505913 115.375687,78.535362 143.558258,78.587677 
	C145.369095,78.591034 147.179611,78.770988 149.493103,79.422729 
	C150.090988,82.653275 150.186066,85.329872 150.164337,88.447739 
	C150.124298,91.927612 150.201065,94.966217 150.161102,98.459946 
	C150.004303,105.598595 149.964233,112.282120 149.503891,118.962044 
	C146.053009,119.367104 143.022400,119.775772 139.535553,120.106125 
	C135.997940,120.027824 132.916565,120.027824 129.991730,120.027824 
	C129.991730,127.115669 129.991730,133.557693 129.870972,140.436096 
	C129.708054,143.865814 129.665894,146.859161 129.623749,149.852509 
M98.009056,107.045174 
	C98.009056,101.136940 98.009056,95.228706 98.009056,89.174240 
	C92.299835,89.174240 86.158768,89.174240 79.159340,89.104515 
	C78.831963,95.472359 78.433655,101.838692 78.298073,108.210617 
	C78.285881,108.783531 79.957253,109.876984 80.871918,109.904922 
	C86.141113,110.065872 91.419334,110.031769 96.689735,109.888412 
	C97.182686,109.875000 97.642410,108.639870 98.009056,107.045174 
M137.331894,107.916801 
	C137.881638,107.144867 138.887497,106.384674 138.907715,105.599106 
	C139.047256,100.178429 138.981140,94.752457 138.981140,89.368233 
	C132.016037,89.368233 125.632515,89.368233 119.004318,89.368233 
	C119.004318,95.021744 118.876671,100.334038 119.105972,105.630875 
	C119.155144,106.766960 120.493172,108.797218 121.242790,108.799683 
	C126.315475,108.816391 131.389587,108.398941 137.331894,107.916801 
z"/>
<path fill="#A61311" opacity="1.000000" stroke="none" 
	d="
M149.926559,56.956532 
	C149.926559,56.956532 150.098114,57.315647 149.617767,57.622334 
	C130.361557,57.945747 111.585617,58.001431 92.809868,57.964600 
	C81.520515,57.942455 70.231461,57.776127 58.924221,57.514626 
	C58.906174,57.354656 58.895729,57.032856 58.822956,56.807777 
	C58.573849,56.305023 58.330578,56.111446 58.013802,55.533813 
	C58.049343,49.306820 58.091442,43.547985 58.589050,37.713493 
	C89.301323,37.633060 119.558098,37.628281 149.814865,37.623501 
	C149.864594,43.447624 149.914322,49.271744 149.769745,55.660408 
	C149.412903,56.573380 149.529938,56.817238 149.926559,56.956532 
z"/>
<path fill="#E9C189" opacity="1.000000" stroke="none" 
	d="
M149.842194,37.204086 
	C119.558098,37.628281 89.301323,37.633060 58.632645,37.591175 
	C58.220737,37.544510 58.201408,37.284821 58.134666,36.885406 
	C58.048374,33.328514 58.028824,30.171032 58.009277,27.013552 
	C58.009277,27.013552 57.999542,27.000376 58.406815,27.051226 
	C66.728546,29.362009 67.970963,28.486338 68.001549,20.634312 
	C68.006050,19.477415 68.029243,18.320593 68.043793,17.163736 
	C91.051765,17.086826 114.059746,17.009916 137.629471,17.208111 
	C138.384521,17.719015 138.622437,17.894260 138.904968,18.008945 
	C138.934509,18.340437 138.985413,18.671606 138.990448,19.003469 
	C139.126266,27.942940 139.125473,27.942951 148.638062,28.272858 
	C149.296768,28.767393 149.499908,28.929272 149.764374,29.014191 
	C149.799423,31.604353 149.834473,34.194515 149.842194,37.204086 
z"/>
<path fill="#EAC289" opacity="1.000000" stroke="none" 
	d="
M58.942268,57.674595 
	C70.231461,57.776127 81.520515,57.942455 92.809868,57.964600 
	C111.585617,58.001431 130.361557,57.945747 149.596786,57.820221 
	C159.846497,57.711422 169.636810,57.711422 180.008514,57.711422 
	C180.008514,60.874226 180.008514,63.479336 179.761658,66.658371 
	C179.246017,67.422852 179.074417,67.678627 178.999985,67.999619 
	C176.347092,68.073593 173.694168,68.212303 171.041290,68.211929 
	C123.337669,68.205116 75.634048,68.181503 27.476612,67.584480 
	C27.043650,64.128479 27.064503,61.249474 27.085356,58.370472 
	C33.403606,58.243240 39.721855,58.116013 46.642502,58.191425 
	C47.828579,58.266468 48.412262,58.138870 49.448425,58.055283 
	C52.914696,57.957726 55.928482,57.816158 58.942268,57.674595 
z"/>
<path fill="#180340" opacity="1.000000" stroke="none" 
	d="
M58.018589,129.987198 
	C54.661755,129.980423 51.304920,129.973633 47.494328,129.947632 
	C47.028294,128.776642 46.863949,127.602325 47.030781,126.477112 
	C47.661644,122.222252 46.129257,120.232162 41.658257,120.987091 
	C37.975155,121.608986 36.504826,120.020973 36.959126,116.323860 
	C37.178398,114.539398 37.018379,112.708328 37.475685,110.432373 
	C44.230659,109.646027 50.540051,109.325676 56.915298,109.446808 
	C57.333801,113.220512 57.686443,116.552734 58.027550,120.346725 
	C58.017242,123.870148 58.018478,126.931801 58.012306,129.996613 
	C58.004898,129.999786 58.018589,129.987198 58.018589,129.987198 
z"/>
<path fill="#1E034F" opacity="1.000000" stroke="none" 
	d="
M56.849442,109.005325 
	C50.540051,109.325676 44.230659,109.646027 37.508671,109.970116 
	C37.071323,103.304314 37.046577,96.634789 37.493366,89.485214 
	C41.308826,89.005714 44.652752,89.006241 47.997795,89.456299 
	C47.999191,90.557320 47.998917,91.208809 47.999817,91.860306 
	C48.009670,98.987717 48.009720,98.987907 54.899033,99.000389 
	C55.550522,99.001572 56.202019,98.998566 56.919136,99.447998 
	C56.939651,102.934097 56.894547,105.969711 56.849442,109.005325 
z"/>
<path fill="#1A0347" opacity="1.000000" stroke="none" 
	d="
M149.924164,118.965652 
	C149.964233,112.282120 150.004303,105.598595 150.557297,98.474258 
	C154.350037,98.353378 157.629837,98.673302 160.909653,98.993233 
	C160.939957,104.428818 160.696304,109.884102 161.085373,115.293892 
	C161.409393,119.798965 159.995438,121.761497 155.375198,121.026939 
	C154.250504,120.848129 153.073120,121.000641 151.432465,120.702942 
	C150.604706,119.925262 150.264435,119.445457 149.924164,118.965652 
z"/>
<path fill="#100327" opacity="1.000000" stroke="none" 
	d="
M129.991730,139.999725 
	C129.991730,133.557693 129.991730,127.115669 129.991730,120.027824 
	C132.916565,120.027824 135.997940,120.027824 139.537750,120.547440 
	C140.340347,124.389542 140.684509,127.712036 141.028671,131.034531 
	C141.015167,133.721100 141.001663,136.407654 140.525665,139.545792 
	C136.706009,139.998154 133.348877,139.998947 129.991730,139.999725 
z"/>
<path fill="#850E0D" opacity="1.000000" stroke="none" 
	d="
M58.924221,57.514626 
	C55.928482,57.816158 52.914696,57.957726 49.372292,57.787010 
	C48.540779,57.266533 48.237881,57.058331 47.934982,56.850128 
	C47.974113,50.556297 48.013248,44.262470 48.554653,37.525787 
	C52.105087,37.150230 55.153248,37.217525 58.201408,37.284821 
	C58.201408,37.284821 58.220737,37.544510 58.177139,37.666828 
	C58.091442,43.547985 58.049343,49.306820 58.106178,55.747166 
	C58.374790,56.699257 58.604992,56.900654 58.895729,57.032856 
	C58.895729,57.032856 58.906174,57.354656 58.924221,57.514626 
z"/>
<path fill="#150533" opacity="1.000000" stroke="none" 
	d="
M47.996674,89.006767 
	C44.652752,89.006241 41.308826,89.005714 37.513542,89.019180 
	C36.861992,78.995941 36.861996,78.993080 46.752934,79.000038 
	C49.891216,79.002243 53.029480,79.024185 56.605339,79.507553 
	C56.980461,82.984055 56.918007,85.990112 56.415192,88.997643 
	C53.315441,89.001671 50.656059,89.004219 47.996674,89.006767 
z"/>
<path fill="#16033A" opacity="1.000000" stroke="none" 
	d="
M141.483124,131.021820 
	C140.684509,127.712036 140.340347,124.389542 139.993988,120.625740 
	C143.022400,119.775772 146.053009,119.367104 149.503906,118.962044 
	C150.264435,119.445457 150.604706,119.925262 150.974976,120.710861 
	C151.002426,121.342171 150.997849,121.667702 150.997574,121.993225 
	C150.990295,130.980667 150.990372,130.980667 141.483124,131.021820 
z"/>
<path fill="#0C021E" opacity="1.000000" stroke="none" 
	d="
M129.870972,140.436096 
	C133.348877,139.998947 136.706009,139.998154 140.518463,139.993835 
	C140.981506,143.022766 140.989273,146.055206 140.995407,149.541321 
	C137.524170,149.976013 134.054535,149.957062 130.104324,149.895309 
	C129.665894,146.859161 129.708054,143.865814 129.870972,140.436096 
z"/>
<path fill="#1C034B" opacity="1.000000" stroke="none" 
	d="
M160.941559,98.540207 
	C157.629837,98.673302 154.350037,98.353378 150.674042,98.019135 
	C150.201065,94.966217 150.124298,91.927612 150.560181,88.462112 
	C154.348358,88.353798 157.623886,88.672371 160.899414,88.990944 
	C160.924103,92.023026 160.948776,95.055099 160.941559,98.540207 
z"/>
<path fill="#BB9B6D" opacity="1.000000" stroke="none" 
	d="
M58.134666,36.885406 
	C55.153248,37.217525 52.105087,37.150230 48.662449,37.072468 
	C48.267971,33.999138 48.267971,30.936277 48.267971,27.173548 
	C51.386177,27.173548 54.248913,27.173548 57.560463,27.093550 
	C58.028824,30.171032 58.048374,33.328514 58.134666,36.885406 
z"/>
<path fill="#1F0351" opacity="1.000000" stroke="none" 
	d="
M160.934601,88.534958 
	C157.623886,88.672371 154.348358,88.353798 150.676987,88.020851 
	C150.186066,85.329872 150.090988,82.653275 149.945847,79.534943 
	C153.325516,79.093224 156.755234,79.093224 160.969788,79.093224 
	C160.969788,82.299400 160.969788,85.189186 160.934601,88.534958 
z"/>
<path fill="#BB9B6D" opacity="1.000000" stroke="none" 
	d="
M67.594101,17.094246 
	C68.029243,18.320593 68.006050,19.477415 68.001549,20.634312 
	C67.970963,28.486338 66.728546,29.362009 58.413254,27.055099 
	C58.008003,26.683092 57.995918,26.357958 58.000275,26.033043 
	C58.133213,16.112276 56.557060,16.977875 67.594101,17.094246 
z"/>
<path fill="#BB9C6E" opacity="1.000000" stroke="none" 
	d="
M26.649452,58.264023 
	C27.064503,61.249474 27.043650,64.128479 27.028502,67.443970 
	C24.155487,67.880470 21.276770,67.880470 17.981390,67.880470 
	C17.981390,65.320496 17.981390,63.092110 18.256031,60.302067 
	C18.761772,59.531658 18.917963,59.276962 19.004984,58.773796 
	C19.010723,58.571270 19.059904,58.169052 19.059904,58.169052 
	C21.444452,58.165226 23.828999,58.161400 26.649452,58.264023 
z"/>
<path fill="#A69DB5" opacity="1.000000" stroke="none" 
	d="
M56.855553,88.996162 
	C56.918007,85.990112 56.980461,82.984055 57.080704,79.531540 
	C57.642632,78.764084 58.166771,78.443085 58.850704,78.296631 
	C59.126247,91.846024 59.241989,105.220886 59.681610,119.156387 
	C59.998981,120.087952 59.992485,120.458870 59.702736,120.835030 
	C58.959354,120.521835 58.499222,120.203392 58.039089,119.884956 
	C57.686443,116.552734 57.333801,113.220512 56.915298,109.446808 
	C56.894547,105.969711 56.939651,102.934097 56.983582,98.997505 
	C56.940121,95.063072 56.897835,92.029617 56.855553,88.996162 
z"/>
<path fill="#DCA374" opacity="1.000000" stroke="none" 
	d="
M47.699608,56.952042 
	C48.237881,57.058331 48.540779,57.266533 48.919811,57.743004 
	C48.412262,58.138870 47.828579,58.266468 47.107819,58.155228 
	C47.135235,57.628914 47.299732,57.341434 47.699608,56.952042 
z"/>
<path fill="#A40C0C" opacity="1.000000" stroke="none" 
	d="
M149.936829,56.722084 
	C149.529938,56.817238 149.412903,56.573380 149.709930,56.127316 
	C149.844391,56.029678 149.947083,56.487640 149.936829,56.722084 
z"/>
<path fill="#887250" opacity="1.000000" stroke="none" 
	d="
M18.774220,58.121017 
	C19.059904,58.169052 19.010723,58.571270 18.779354,58.767696 
	C18.547985,58.964123 18.105028,59.051064 18.105028,59.051064 
	C18.232862,58.725037 18.360697,58.399006 18.774220,58.121017 
z"/>
<path fill="#C8A676" opacity="1.000000" stroke="none" 
	d="
M149.825592,28.755310 
	C149.499908,28.929272 149.296768,28.767393 149.071716,28.348476 
	C149.287918,28.277744 149.587372,28.387087 149.825592,28.755310 
z"/>
<path fill="#C8A676" opacity="1.000000" stroke="none" 
	d="
M138.967346,17.708029 
	C138.622437,17.894260 138.384521,17.719015 138.092590,17.282789 
	C138.339203,17.190615 138.684479,17.298864 138.967346,17.708029 
z"/>
<path fill="#D0AC7B" opacity="1.000000" stroke="none" 
	d="
M18.069666,59.281246 
	C18.105028,59.051064 18.547985,58.964123 18.773615,58.970222 
	C18.917963,59.276962 18.761772,59.531658 18.334305,59.852962 
	C18.137938,59.965519 18.034304,59.511429 18.069666,59.281246 
z"/>
<path fill="#D0AC7B" opacity="1.000000" stroke="none" 
	d="
M179.315155,68.047165 
	C179.074417,67.678627 179.246017,67.422852 179.718811,67.115021 
	C179.825317,67.363419 179.727814,67.729073 179.315155,68.047165 
z"/>
<path fill="#1A1A1A" opacity="1.000000" stroke="none" 
	d="
M98.860458,190.875748 
	C82.121330,191.442398 65.446342,191.511322 48.381424,191.044479 
	C47.994606,187.339554 47.997707,184.170380 48.000809,181.001221 
	C48.000809,181.001221 48.000000,181.000000 48.457520,181.000336 
	C56.639305,180.998871 56.636536,180.998245 58.370007,173.370300 
	C58.551025,172.573761 58.789257,171.790192 59.439377,171.000519 
	C68.558281,170.995789 68.983604,170.574982 68.999634,161.974640 
	C69.000237,161.649353 68.999496,161.324066 68.999390,160.998779 
	C77.484505,160.996475 85.972534,161.121948 94.453316,160.929214 
	C97.863708,160.851715 99.173492,161.854172 99.069901,165.425491 
	C98.828781,173.737411 98.950119,182.059845 98.860458,190.875748 
z"/>
<path fill="#1A1A1A" opacity="1.000000" stroke="none" 
	d="
M150.057831,191.218781 
	C136.742874,191.510757 123.411064,191.368927 109.628059,191.277466 
	C109.120766,182.524887 109.160027,173.719757 108.957222,164.920197 
	C108.885498,161.808334 110.097038,160.834351 113.056557,160.957611 
	C117.202774,161.130295 121.373428,161.194321 125.511375,160.941193 
	C129.020966,160.726486 130.523849,162.015198 129.982574,165.482544 
	C129.303757,169.830902 130.977081,171.715179 135.439087,171.012466 
	C138.794128,170.484070 140.534332,171.814835 139.991821,175.395966 
	C139.356735,179.588165 140.739487,181.790283 145.343887,181.015579 
	C149.145905,180.375885 150.465759,182.159622 150.037247,185.805405 
	C149.844833,187.442490 150.028152,189.123749 150.057831,191.218781 
z"/>
<path fill="#0F0326" opacity="1.000000" stroke="none" 
	d="
M80.959389,119.696854 
	C90.511108,119.617973 88.749069,118.865959 88.883667,127.302773 
	C88.946365,131.233047 88.872223,135.165527 88.309242,139.552734 
	C79.006088,139.988266 79.006233,139.988266 78.999390,148.497818 
	C78.998726,149.326965 78.994804,150.156097 78.992401,150.985245 
	C75.579666,150.766434 72.166939,150.547623 68.377487,149.713104 
	C67.998146,146.394897 67.995522,143.692383 67.996765,140.532837 
	C68.006958,136.717209 68.013275,133.358597 68.471306,130.000519 
	C69.900322,130.000076 70.877632,129.999344 71.854935,129.998138 
	C78.987267,129.989319 78.987236,129.989288 78.999992,122.613503 
	C79.000832,122.124855 79.002792,121.636200 79.348663,121.071838 
	C80.115196,120.563034 80.537292,120.129944 80.959389,119.696854 
z"/>
<path fill="#191919" opacity="1.000000" stroke="none" 
	d="
M59.028450,150.007935 
	C58.686085,153.374756 58.343723,156.741592 58.001038,160.554016 
	C58.000721,160.999634 58.002552,160.991791 57.548199,160.991470 
	C54.063732,160.995316 51.033623,160.999496 48.001831,161.001831 
	C48.000153,161.000000 47.998932,160.998779 47.999325,160.540833 
	C48.000805,156.723602 48.001892,153.364349 48.002983,150.005081 
	C48.002983,150.005081 48.000000,150.000000 48.459568,150.000519 
	C52.288910,150.003342 55.658680,150.005630 59.028450,150.007935 
z"/>
<path fill="#161617" opacity="1.000000" stroke="none" 
	d="
M68.541321,160.996918 
	C68.999496,161.324066 69.000237,161.649353 68.999634,161.974640 
	C68.983604,170.574982 68.558281,170.995789 59.187119,170.999771 
	C58.328270,170.998550 58.160107,170.997971 57.996262,170.543503 
	C58.001240,167.056992 58.001896,164.024399 58.002552,160.991791 
	C58.002552,160.991791 58.000721,160.999634 57.996239,161.001190 
	C61.355583,161.000183 64.719414,160.997620 68.541321,160.996918 
z"/>
<path fill="#0B031C" opacity="1.000000" stroke="none" 
	d="
M79.412872,150.990479 
	C78.994804,150.156097 78.998726,149.326965 78.999390,148.497818 
	C79.006233,139.988266 79.006088,139.988266 88.183731,140.006073 
	C88.710594,142.703888 88.812088,145.404099 88.858269,148.808380 
	C88.729668,149.696442 88.656380,149.880432 88.583092,150.064407 
	C85.666504,150.374847 82.749924,150.685287 79.412872,150.990479 
z"/>
<path fill="#161615" opacity="1.000000" stroke="none" 
	d="
M59.270588,150.010254 
	C55.658680,150.005630 52.288910,150.003342 48.461227,150.001709 
	C48.002632,149.675247 48.001511,149.348145 48.001320,149.021027 
	C47.996052,140.012009 47.996067,140.012009 57.807144,140.104858 
	C58.730732,140.420822 58.910137,140.678909 58.738258,141.250916 
	C58.640694,143.675446 58.819637,145.838028 59.107895,148.259491 
	C59.477142,149.015671 59.737072,149.512970 59.997005,150.010284 
	C59.997005,150.010284 59.512722,150.012604 59.270588,150.010254 
z"/>
<path fill="#1A1A1A" opacity="1.000000" stroke="none" 
	d="
M60.441547,150.010956 
	C59.737072,149.512970 59.477142,149.015671 59.388210,147.985626 
	C59.706074,145.314453 59.852936,143.176041 60.443630,141.024414 
	C63.255939,141.004105 65.624413,140.996994 67.992889,140.989868 
	C67.995522,143.692383 67.998146,146.394897 68.002487,149.547485 
	C65.631493,150.002243 63.258793,150.006943 60.441547,150.010956 
z"/>
<path fill="#DBDADE" opacity="1.000000" stroke="none" 
	d="
M88.933289,150.145950 
	C88.656380,149.880432 88.729668,149.696442 88.945419,149.251770 
	C89.423126,149.094147 89.679085,149.297180 89.921738,149.841064 
	C89.752991,150.130463 89.518242,150.178970 88.933289,150.145950 
z"/>
<path fill="#161615" opacity="1.000000" stroke="none" 
	d="
M47.543327,181.001053 
	C47.997707,184.170380 47.994606,187.339554 47.990757,190.899475 
	C44.942719,191.456818 41.895428,191.623398 38.386276,191.815826 
	C37.924419,191.841660 37.479004,191.746002 37.260052,191.682190 
	C37.345909,190.854889 37.828278,190.113876 37.928192,189.324463 
	C38.981182,181.005264 38.964336,181.003128 47.543327,181.001053 
z"/>
<path fill="#1A0345" opacity="1.000000" stroke="none" 
	d="
M67.996765,140.532837 
	C65.624413,140.996994 63.255939,141.004105 60.197517,141.009003 
	C59.507576,141.006790 59.014763,140.988983 59.014763,140.988983 
	C58.910137,140.678909 58.730732,140.420822 58.268318,140.100739 
	C58.050076,136.957077 58.040054,133.927414 58.024307,130.442474 
	C58.018589,129.987198 58.004898,129.999786 58.464622,129.999786 
	C61.956093,129.999847 64.987846,129.999924 68.019592,130.000000 
	C68.013275,133.358597 68.006958,136.717209 67.996765,140.532837 
z"/>
<path fill="#161615" opacity="1.000000" stroke="none" 
	d="
M57.991940,170.997406 
	C58.160107,170.997971 58.328270,170.998550 58.748688,170.999863 
	C58.789257,171.790192 58.551025,172.573761 58.370007,173.370300 
	C56.636536,180.998245 56.639305,180.998871 48.458084,181.000641 
	C48.001099,177.968124 48.001064,174.935623 48.000488,171.451843 
	C47.999943,171.000549 47.994087,171.001831 48.448708,171.000778 
	C51.932869,170.998947 54.962402,170.998184 57.991940,170.997406 
z"/>
<path fill="#171615" opacity="1.000000" stroke="none" 
	d="
M47.594730,150.057968 
	C48.001892,153.364349 48.000805,156.723602 47.545418,160.541229 
	C44.063087,161.000351 41.035061,161.001083 38.007030,161.001831 
	C38.200752,157.907471 37.354897,154.032425 38.910583,151.960846 
	C40.201435,150.241928 44.320389,150.646820 47.594730,150.057968 
z"/>
<path fill="#191919" opacity="1.000000" stroke="none" 
	d="
M38.002956,161.459076 
	C41.035061,161.001083 44.063087,161.000351 47.545025,160.999191 
	C47.998932,160.998779 48.000153,161.000000 48.002342,161.455536 
	C48.001049,164.941330 47.997570,167.971588 47.994087,171.001831 
	C47.994087,171.001831 47.999943,171.000549 48.000858,170.997360 
	C47.675533,170.995178 47.349293,170.996933 47.023052,170.997086 
	C37.984871,171.001404 37.984871,171.001373 38.002956,161.459076 
z"/>
<path fill="#673AB7" opacity="1.000000" stroke="none" 
	d="
M136.897568,108.019348 
	C131.389587,108.398941 126.315475,108.816391 121.242790,108.799683 
	C120.493172,108.797218 119.155144,106.766960 119.105972,105.630875 
	C118.876671,100.334038 119.004318,95.021744 119.004318,89.368233 
	C125.632515,89.368233 132.016037,89.368233 138.981140,89.368233 
	C138.981140,94.752457 139.047256,100.178429 138.907715,105.599106 
	C138.887497,106.384674 137.881638,107.144867 136.897568,108.019348 
z"/>
<path fill="#673AB7" opacity="1.000000" stroke="none" 
	d="
M80.017685,89.174240 
	C86.158768,89.174240 92.299835,89.174240 98.009056,89.174240 
	C98.009056,95.228706 98.009056,101.136940 97.587036,107.516113 
	C92.891418,107.991570 88.605331,107.796181 84.348076,108.062119 
	C80.765114,108.285934 79.784058,106.810646 79.941025,103.471664 
	C80.164627,98.715164 80.010475,93.940910 80.017685,89.174240 
z"/>
<path fill="#734ABD" opacity="1.000000" stroke="none" 
	d="
M79.588516,89.139374 
	C80.010475,93.940910 80.164627,98.715164 79.941025,103.471664 
	C79.784058,106.810646 80.765114,108.285934 84.348076,108.062119 
	C88.605331,107.796181 92.891418,107.991570 97.641281,107.979515 
	C97.642410,108.639870 97.182686,109.875000 96.689735,109.888412 
	C91.419334,110.031769 86.141113,110.065872 80.871918,109.904922 
	C79.957253,109.876984 78.285881,108.783531 78.298073,108.210617 
	C78.433655,101.838692 78.831963,95.472359 79.588516,89.139374 
z"/>
<path fill="#9C95A9" opacity="1.000000" stroke="none" 
	d="
M80.650284,119.425598 
	C80.537292,120.129944 80.115196,120.563034 78.884346,121.005447 
	C72.045731,120.953110 66.015854,120.891441 59.985985,120.829773 
	C59.992485,120.458870 59.998981,120.087952 60.012413,119.439331 
	C66.793282,119.159187 73.567230,119.156761 80.650284,119.425598 
z"/>
<path fill="#A40C0C" opacity="1.000000" stroke="none" 
	d="
M58.822956,56.807777 
	C58.604992,56.900654 58.374790,56.699257 58.112740,56.215321 
	C58.330578,56.111446 58.573849,56.305023 58.822956,56.807777 
z"/>
<path fill="#140333" opacity="1.000000" stroke="none" 
	d="
M59.702736,120.835022 
	C66.015854,120.891441 72.045731,120.953110 78.539917,121.081161 
	C79.002792,121.636200 79.000832,122.124855 78.999992,122.613503 
	C78.987236,129.989288 78.987267,129.989319 71.854935,129.998138 
	C70.877632,129.999344 69.900322,130.000076 68.471306,130.000519 
	C64.987846,129.999924 61.956093,129.999847 58.472031,129.996613 
	C58.018478,126.931801 58.017242,123.870148 58.027550,120.346725 
	C58.499222,120.203392 58.959354,120.521835 59.702736,120.835022 
z"/>
<path fill="#1A0347" opacity="1.000000" stroke="none" 
	d="
M56.415192,88.997643 
	C56.897835,92.029617 56.940121,95.063072 56.917957,98.547012 
	C56.202019,98.998566 55.550522,99.001572 54.899033,99.000389 
	C48.009720,98.987907 48.009670,98.987717 47.999817,91.860306 
	C47.998917,91.208809 47.999191,90.557320 47.997795,89.456299 
	C50.656059,89.004219 53.315441,89.001671 56.415192,88.997643 
z"/>
<path fill="#090908" opacity="1.000000" stroke="none" 
	d="
M48.448711,171.000778 
	C47.997570,167.971588 48.001049,164.941330 48.004021,161.457367 
	C51.033623,160.999496 54.063732,160.995316 57.548199,160.991470 
	C58.001896,164.024399 58.001240,167.056992 57.996262,170.543503 
	C54.962402,170.998184 51.932869,170.998947 48.448711,171.000778 
z"/>
<path fill="#191919" opacity="1.000000" stroke="none" 
	d="
M58.738258,141.250916 
	C59.014763,140.988983 59.507576,141.006790 59.753685,141.022202 
	C59.852936,143.176041 59.706074,145.314453 59.278896,147.726746 
	C58.819637,145.838028 58.640694,143.675446 58.738258,141.250916 
z"/>
</svg>